<mxfile host="app.diagrams.net" agent="Mozilla/5.0 (Windows NT 10.0; Win64; x64) AppleWebKit/537.36 (KHTML, like Gecko) Chrome/131.0.0.0 Safari/537.36" version="24.8.6">
  <diagram name="Página-1" id="zOo4Z0MUcP1ekV8wRXXd">
    <mxGraphModel dx="880" dy="2098" grid="1" gridSize="10" guides="1" tooltips="1" connect="1" arrows="1" fold="1" page="1" pageScale="1" pageWidth="1169" pageHeight="1654" math="0" shadow="0">
      <root>
        <mxCell id="0" />
        <mxCell id="1" parent="0" />
        <mxCell id="H1K7R-HDyBYot_9CopJg-1" value="Factura" style="swimlane;childLayout=stackLayout;horizontal=1;startSize=50;horizontalStack=0;rounded=1;fontSize=14;fontStyle=0;strokeWidth=2;resizeParent=0;resizeLast=1;shadow=0;dashed=0;align=center;arcSize=4;whiteSpace=wrap;html=1;" parent="1" vertex="1">
          <mxGeometry x="570" y="-250" width="160" height="160" as="geometry">
            <mxRectangle x="120" y="270" width="80" height="50" as="alternateBounds" />
          </mxGeometry>
        </mxCell>
        <mxCell id="H1K7R-HDyBYot_9CopJg-2" value="idFactura INT&lt;div&gt;&lt;span style=&quot;background-color: initial;&quot;&gt;idUsuario VARCHAR(20)&lt;/span&gt;&lt;/div&gt;&lt;div&gt;&lt;span style=&quot;background-color: initial;&quot;&gt;fechaEmision DATE&lt;/span&gt;&lt;/div&gt;&lt;div&gt;&lt;span style=&quot;background-color: initial;&quot;&gt;fechaVencimiento DATE&lt;/span&gt;&lt;/div&gt;&lt;div&gt;Total DECIMAL(10,2)&lt;/div&gt;&lt;div&gt;estadoPago VARCHAR(15)&lt;/div&gt;&lt;div&gt;metodoPago VARCHAR(15)&lt;/div&gt;" style="align=left;strokeColor=none;fillColor=none;spacingLeft=4;fontSize=12;verticalAlign=top;resizable=0;rotatable=0;part=1;html=1;" parent="H1K7R-HDyBYot_9CopJg-1" vertex="1">
          <mxGeometry y="50" width="160" height="110" as="geometry" />
        </mxCell>
        <mxCell id="H1K7R-HDyBYot_9CopJg-16" value="Usuario" style="swimlane;childLayout=stackLayout;horizontal=1;startSize=50;horizontalStack=0;rounded=1;fontSize=14;fontStyle=0;strokeWidth=2;resizeParent=0;resizeLast=1;shadow=0;dashed=0;align=center;arcSize=4;whiteSpace=wrap;html=1;" parent="1" vertex="1">
          <mxGeometry x="70" y="-100" width="160" height="190" as="geometry">
            <mxRectangle x="120" y="270" width="80" height="50" as="alternateBounds" />
          </mxGeometry>
        </mxCell>
        <mxCell id="H1K7R-HDyBYot_9CopJg-17" value="idUsuario VARCHAR(20)&lt;div&gt;Nombre VARCHAR(40)&lt;/div&gt;&lt;div&gt;apellidoP VARCHAR (25)&lt;/div&gt;&lt;div&gt;apellidoM VARCHAR(25)&lt;/div&gt;&lt;div&gt;Email VARCHAR(50)&lt;/div&gt;&lt;div&gt;Contraseña VARCHAR(25)&lt;/div&gt;&lt;div&gt;fechaNacimiento DATE&lt;/div&gt;&lt;div&gt;tipoDocumento VARCHAR(20)&lt;/div&gt;&lt;div&gt;Documento VARCHAR(15)&lt;/div&gt;" style="align=left;strokeColor=none;fillColor=none;spacingLeft=4;fontSize=12;verticalAlign=top;resizable=0;rotatable=0;part=1;html=1;" parent="H1K7R-HDyBYot_9CopJg-16" vertex="1">
          <mxGeometry y="50" width="160" height="140" as="geometry" />
        </mxCell>
        <mxCell id="H1K7R-HDyBYot_9CopJg-20" value="Linea" style="swimlane;childLayout=stackLayout;horizontal=1;startSize=50;horizontalStack=0;rounded=1;fontSize=14;fontStyle=0;strokeWidth=2;resizeParent=0;resizeLast=1;shadow=0;dashed=0;align=center;arcSize=4;whiteSpace=wrap;html=1;" parent="1" vertex="1">
          <mxGeometry x="560" y="-30" width="160" height="160" as="geometry">
            <mxRectangle x="120" y="270" width="80" height="50" as="alternateBounds" />
          </mxGeometry>
        </mxCell>
        <mxCell id="H1K7R-HDyBYot_9CopJg-21" value="idLinea INT&lt;div&gt;idPlan VARCHAR(10)&lt;/div&gt;&lt;div&gt;idUsuario VARCHAR(20)&lt;/div&gt;&lt;div&gt;Telefono INT&lt;/div&gt;&lt;div&gt;Estado VARCHAR(10)&lt;/div&gt;&lt;div&gt;fechaInicioPlan DATE&lt;/div&gt;&lt;div&gt;fechaFinPlan DATE&lt;/div&gt;" style="align=left;strokeColor=none;fillColor=none;spacingLeft=4;fontSize=12;verticalAlign=top;resizable=0;rotatable=0;part=1;html=1;" parent="H1K7R-HDyBYot_9CopJg-20" vertex="1">
          <mxGeometry y="50" width="160" height="110" as="geometry" />
        </mxCell>
        <mxCell id="H1K7R-HDyBYot_9CopJg-22" value="detalleFactura" style="swimlane;childLayout=stackLayout;horizontal=1;startSize=50;horizontalStack=0;rounded=1;fontSize=14;fontStyle=0;strokeWidth=2;resizeParent=0;resizeLast=1;shadow=0;dashed=0;align=center;arcSize=4;whiteSpace=wrap;html=1;" parent="1" vertex="1">
          <mxGeometry x="801" y="-270" width="179" height="180" as="geometry">
            <mxRectangle x="120" y="270" width="80" height="50" as="alternateBounds" />
          </mxGeometry>
        </mxCell>
        <mxCell id="H1K7R-HDyBYot_9CopJg-23" value="&lt;div&gt;idDetalle INT&lt;/div&gt;idLinea INT&lt;div&gt;idFactura INT&lt;/div&gt;&lt;div&gt;Descripcion VARCHAR(100)&lt;/div&gt;&lt;div&gt;precioLinea DECIMAL(10,2)&lt;/div&gt;&lt;div&gt;Cantidad INT&lt;/div&gt;&lt;div&gt;precioUnitario DECIMAL(10,2)&lt;/div&gt;&lt;div&gt;subTotal&lt;/div&gt;" style="align=left;strokeColor=none;fillColor=none;spacingLeft=4;fontSize=12;verticalAlign=top;resizable=0;rotatable=0;part=1;html=1;" parent="H1K7R-HDyBYot_9CopJg-22" vertex="1">
          <mxGeometry y="50" width="179" height="130" as="geometry" />
        </mxCell>
        <mxCell id="H1K7R-HDyBYot_9CopJg-28" value="Cliente" style="swimlane;childLayout=stackLayout;horizontal=1;startSize=50;horizontalStack=0;rounded=1;fontSize=14;fontStyle=0;strokeWidth=2;resizeParent=0;resizeLast=1;shadow=0;dashed=0;align=center;arcSize=4;whiteSpace=wrap;html=1;" parent="1" vertex="1">
          <mxGeometry x="310" y="-170" width="180" height="120" as="geometry">
            <mxRectangle x="120" y="270" width="80" height="50" as="alternateBounds" />
          </mxGeometry>
        </mxCell>
        <mxCell id="H1K7R-HDyBYot_9CopJg-29" value="idUsuario VARCHAR(20)&lt;div&gt;fechaRegistro DATE&lt;/div&gt;&lt;div&gt;numLineas INT&lt;/div&gt;&lt;div&gt;Estado VARCHAR(15)&lt;/div&gt;" style="align=left;strokeColor=none;fillColor=none;spacingLeft=4;fontSize=12;verticalAlign=top;resizable=0;rotatable=0;part=1;html=1;" parent="H1K7R-HDyBYot_9CopJg-28" vertex="1">
          <mxGeometry y="50" width="180" height="70" as="geometry" />
        </mxCell>
        <mxCell id="H1K7R-HDyBYot_9CopJg-32" value="" style="edgeStyle=entityRelationEdgeStyle;fontSize=12;html=1;endArrow=ERoneToMany;startArrow=ERmandOne;rounded=0;exitX=1;exitY=0.25;exitDx=0;exitDy=0;entryX=0;entryY=0.25;entryDx=0;entryDy=0;" parent="1" source="H1K7R-HDyBYot_9CopJg-17" target="H1K7R-HDyBYot_9CopJg-29" edge="1">
          <mxGeometry width="100" height="100" relative="1" as="geometry">
            <mxPoint x="480" y="120" as="sourcePoint" />
            <mxPoint x="580" y="20" as="targetPoint" />
          </mxGeometry>
        </mxCell>
        <mxCell id="H1K7R-HDyBYot_9CopJg-34" value="" style="edgeStyle=entityRelationEdgeStyle;fontSize=12;html=1;endArrow=ERoneToMany;startArrow=ERmandOne;rounded=0;entryX=0;entryY=0.25;entryDx=0;entryDy=0;exitX=1.006;exitY=0.357;exitDx=0;exitDy=0;exitPerimeter=0;" parent="1" source="H1K7R-HDyBYot_9CopJg-29" target="H1K7R-HDyBYot_9CopJg-2" edge="1">
          <mxGeometry width="100" height="100" relative="1" as="geometry">
            <mxPoint x="540" y="50" as="sourcePoint" />
            <mxPoint x="610" as="targetPoint" />
          </mxGeometry>
        </mxCell>
        <mxCell id="H1K7R-HDyBYot_9CopJg-35" value="" style="edgeStyle=entityRelationEdgeStyle;fontSize=12;html=1;endArrow=ERoneToMany;startArrow=ERmandOne;rounded=0;exitX=1;exitY=0.75;exitDx=0;exitDy=0;entryX=-0.019;entryY=0.355;entryDx=0;entryDy=0;entryPerimeter=0;" parent="1" source="H1K7R-HDyBYot_9CopJg-29" target="H1K7R-HDyBYot_9CopJg-21" edge="1">
          <mxGeometry width="100" height="100" relative="1" as="geometry">
            <mxPoint x="270" y="110" as="sourcePoint" />
            <mxPoint x="630" y="180" as="targetPoint" />
          </mxGeometry>
        </mxCell>
        <mxCell id="H1K7R-HDyBYot_9CopJg-36" value="" style="edgeStyle=entityRelationEdgeStyle;fontSize=12;html=1;endArrow=ERoneToMany;startArrow=ERmandOne;rounded=0;entryX=1;entryY=0.5;entryDx=0;entryDy=0;exitX=0;exitY=0.25;exitDx=0;exitDy=0;" parent="1" source="zZQD3YhrdzNWpPQQFe74-2" target="H1K7R-HDyBYot_9CopJg-21" edge="1">
          <mxGeometry width="100" height="100" relative="1" as="geometry">
            <mxPoint x="790" y="240" as="sourcePoint" />
            <mxPoint x="867" y="130" as="targetPoint" />
          </mxGeometry>
        </mxCell>
        <mxCell id="H1K7R-HDyBYot_9CopJg-37" value="" style="edgeStyle=entityRelationEdgeStyle;fontSize=12;html=1;endArrow=ERoneToMany;startArrow=ERmandOne;rounded=0;exitX=1;exitY=0.25;exitDx=0;exitDy=0;entryX=0;entryY=0;entryDx=0;entryDy=0;" parent="1" source="H1K7R-HDyBYot_9CopJg-2" target="H1K7R-HDyBYot_9CopJg-23" edge="1">
          <mxGeometry width="100" height="100" relative="1" as="geometry">
            <mxPoint x="860" y="37" as="sourcePoint" />
            <mxPoint x="770" y="10" as="targetPoint" />
          </mxGeometry>
        </mxCell>
        <mxCell id="zZQD3YhrdzNWpPQQFe74-1" value="Plan" style="swimlane;childLayout=stackLayout;horizontal=1;startSize=50;horizontalStack=0;rounded=1;fontSize=14;fontStyle=0;strokeWidth=2;resizeParent=0;resizeLast=1;shadow=0;dashed=0;align=center;arcSize=4;whiteSpace=wrap;html=1;" parent="1" vertex="1">
          <mxGeometry x="810" y="-60" width="170" height="180" as="geometry">
            <mxRectangle x="120" y="270" width="80" height="50" as="alternateBounds" />
          </mxGeometry>
        </mxCell>
        <mxCell id="zZQD3YhrdzNWpPQQFe74-2" value="&lt;div&gt;idPlan VARCHAR(10)&lt;/div&gt;&lt;div&gt;Detalles VARCHAR(40)&lt;/div&gt;&lt;div&gt;tipoPlan VARCHAR(20)&lt;/div&gt;&lt;div&gt;Precio DECIMAL(5,2)&lt;/div&gt;&lt;div&gt;duracionDias INT&lt;/div&gt;&lt;div&gt;Gigas INT&lt;/div&gt;&lt;div&gt;Beneficios VARCHAR(200)&lt;/div&gt;&lt;div&gt;Apps VARCHAR(250)&lt;/div&gt;" style="align=left;strokeColor=none;fillColor=none;spacingLeft=4;fontSize=12;verticalAlign=top;resizable=0;rotatable=0;part=1;html=1;" parent="zZQD3YhrdzNWpPQQFe74-1" vertex="1">
          <mxGeometry y="50" width="170" height="130" as="geometry" />
        </mxCell>
        <mxCell id="zZQD3YhrdzNWpPQQFe74-5" value="" style="edgeStyle=entityRelationEdgeStyle;fontSize=12;html=1;endArrow=ERoneToMany;startArrow=ERmandOne;rounded=0;entryX=0;entryY=0.75;entryDx=0;entryDy=0;exitX=1;exitY=0;exitDx=0;exitDy=0;" parent="1" source="H1K7R-HDyBYot_9CopJg-21" target="H1K7R-HDyBYot_9CopJg-23" edge="1">
          <mxGeometry width="100" height="100" relative="1" as="geometry">
            <mxPoint x="810" y="13" as="sourcePoint" />
            <mxPoint x="730" y="128" as="targetPoint" />
          </mxGeometry>
        </mxCell>
        <mxCell id="yL49d5EJoE1rCZS2YO4r-3" value="paqueteAdicional" style="swimlane;childLayout=stackLayout;horizontal=1;startSize=50;horizontalStack=0;rounded=1;fontSize=14;fontStyle=0;strokeWidth=2;resizeParent=0;resizeLast=1;shadow=0;dashed=0;align=center;arcSize=4;whiteSpace=wrap;html=1;" parent="1" vertex="1">
          <mxGeometry x="1050" y="-200" width="181" height="140" as="geometry" />
        </mxCell>
        <mxCell id="yL49d5EJoE1rCZS2YO4r-4" value="idPaquete INT&lt;div&gt;Nombre VARCHAR(20)&lt;/div&gt;&lt;div&gt;Descripcion VARCHAR(20)&lt;/div&gt;&lt;div&gt;precioUnitario DECIMAL(10,2)&lt;/div&gt;&lt;div&gt;duracionDias INT&lt;/div&gt;" style="align=left;strokeColor=none;fillColor=none;spacingLeft=4;fontSize=12;verticalAlign=top;resizable=0;rotatable=0;part=1;html=1;" parent="yL49d5EJoE1rCZS2YO4r-3" vertex="1">
          <mxGeometry y="50" width="181" height="90" as="geometry" />
        </mxCell>
        <mxCell id="yL49d5EJoE1rCZS2YO4r-6" value="" style="edgeStyle=entityRelationEdgeStyle;fontSize=12;html=1;endArrow=ERoneToMany;startArrow=ERmandOne;rounded=0;exitX=0;exitY=0.25;exitDx=0;exitDy=0;entryX=1;entryY=0;entryDx=0;entryDy=0;" parent="1" source="yL49d5EJoE1rCZS2YO4r-4" target="H1K7R-HDyBYot_9CopJg-23" edge="1">
          <mxGeometry width="100" height="100" relative="1" as="geometry">
            <mxPoint x="1270" y="-200" as="sourcePoint" />
            <mxPoint x="1010" y="-230" as="targetPoint" />
          </mxGeometry>
        </mxCell>
      </root>
    </mxGraphModel>
  </diagram>
</mxfile>
